<svg width="512" height="512" viewBox="0 0 512 512" fill="none" xmlns="http://www.w3.org/2000/svg">
  <defs>
    <linearGradient id="bg" x1="64" y1="64" x2="448" y2="448" gradientUnits="userSpaceOnUse">
      <stop stop-color="#111827"/>
      <stop offset="0.55" stop-color="#7F1D1D"/>
      <stop offset="1" stop-color="#BE185D"/>
    </linearGradient>
    <radialGradient id="glow1" cx="0" cy="0" r="1" gradientUnits="userSpaceOnUse" gradientTransform="translate(170 150) rotate(45) scale(190)">
      <stop stop-color="#FB923C" stop-opacity="0.55"/>
      <stop offset="1" stop-color="#FB923C" stop-opacity="0"/>
    </radialGradient>
    <radialGradient id="glow2" cx="0" cy="0" r="1" gradientUnits="userSpaceOnUse" gradientTransform="translate(372 378) rotate(45) scale(210)">
      <stop stop-color="#F472B6" stop-opacity="0.35"/>
      <stop offset="1" stop-color="#F472B6" stop-opacity="0"/>
    </radialGradient>
    <filter id="shadow" x="0" y="0" width="512" height="512" filterUnits="userSpaceOnUse" color-interpolation-filters="sRGB">
      <feDropShadow dx="0" dy="16" stdDeviation="18" flood-color="#000000" flood-opacity="0.35"/>
    </filter>
  </defs>

  <rect x="32" y="32" width="448" height="448" rx="118" fill="url(#bg)"/>
  <rect x="32" y="32" width="448" height="448" rx="118" fill="url(#glow1)"/>
  <rect x="32" y="32" width="448" height="448" rx="118" fill="url(#glow2)"/>

  <g filter="url(#shadow)">
    <circle cx="256" cy="260" r="132" fill="#FFF7ED" fill-opacity="0.96"/>
    <g transform="translate(121 115) scale(5.6)">
      <path fill="#DD2C00" d="M39,28c0,8.395-6.606,15-15.001,15S9,36.395,9,28S22.479,12.6,20.959,5C24,5,39,15.841,39,28z"/>
      <path fill="#FF5722" d="M33,32c0-7.599-9-15-9-15c0,6.08-9,8.921-9,15c0,5.036,3.963,9,9,9S33,37.036,33,32z"/>
      <path fill="#FFC107" d="M18.999,35.406C19,32,24,30.051,24,27c0,0,4.999,3.832,4.999,8.406c0,2.525-2.237,4.574-5,4.574S18.998,37.932,18.999,35.406z"/>
    </g>
  </g>
</svg>
